# xmcd CD database file
# Copyright (C) 1996 Ti Kan
#
# Track frame offsets:
# 	182
# 	20457
# 	42240
# 	63477
# 	82112
# 	98167
# 	116965
# 	133552
# 	151315
# 	176265
# 	191930
# 	209310
# 	229235
# 	245477
#
# Disc length: 3482 seconds
#
# Revision: 1
# Processed by: cddbd v1.4b41PL1 Copyright (c) Steve Scherf et al.
# Submitted via: DiscPlay 3.4.1
#
DISCID=c30d980e
DTITLE=The Animals - The Animals
DYEAR=1900
DGENRE=
TTITLE0=House of the Rising Sun
TTITLE1=Howlin'
TTITLE2=Night Fighter
TTITLE3=Frisco Queen
TTITLE4=Bist Immer
TTITLE5=Roadbuster
TTITLE6=We Gotta Get Out of This Place
TTITLE7=Don't Let Me Be Misunderstood
TTITLE8=To Love Somebody
TTITLE9=San Franciscan Nights
TTITLE10=When I was Young
TTITLE11=Love Fire
TTITLE12=Paymaster
TTITLE13=Stand Up
EXTD=
EXTT0=
EXTT1=
EXTT2=
EXTT3=
EXTT4=
EXTT5=
EXTT6=
EXTT7=
EXTT8=
EXTT9=
EXTT10=
EXTT11=
EXTT12=
EXTT13=
PLAYORDER=
